<?xml version="1.0" standalone="no"?>
<!DOCTYPE svg PUBLIC "-//W3C//DTD SVG 20010904//EN"
 "http://www.w3.org/TR/2001/REC-SVG-20010904/DTD/svg10.dtd">
<svg version="1.0" xmlns="http://www.w3.org/2000/svg"
 width="700.000000pt" height="700.000000pt" viewBox="0 0 700.000000 700.000000"
 preserveAspectRatio="xMidYMid meet">
<metadata>
Created by potrace 1.14, written by Peter Selinger 2001-2017
</metadata>
<g transform="translate(0.000000,700.000000) scale(0.100000,-0.100000)"
fill="#000000" stroke="none">
<path d="M765 6994 c-11 -2 -45 -9 -75 -15 -232 -45 -439 -197 -577 -424 -27
-43 -55 -114 -80 -195 -22 -72 -26 -105 -27 -220 0 -74 3 -148 6 -165 52 -238
156 -406 343 -553 166 -130 241 -230 293 -387 67 -207 33 -446 -89 -627 -51
-74 -92 -115 -209 -210 -241 -193 -360 -445 -346 -735 8 -184 59 -330 162
-474 59 -81 93 -116 209 -208 91 -73 123 -104 171 -171 63 -87 116 -213 130
-313 11 -71 5 -201 -11 -270 -45 -183 -138 -318 -310 -449 -180 -137 -297
-323 -340 -542 -19 -99 -13 -281 14 -381 42 -158 125 -299 242 -411 61 -57
180 -144 199 -144 5 0 24 -9 42 -19 18 -11 74 -32 123 -47 79 -23 107 -27 235
-27 118 0 160 4 225 22 307 83 542 317 625 622 28 104 36 283 15 379 -52 251
-149 398 -393 592 -334 267 -369 760 -76 1063 22 22 73 67 114 100 144 114
210 193 278 330 44 87 61 138 80 240 9 51 9 248 -1 299 -38 202 -153 396 -312
524 -203 164 -266 243 -320 406 -63 189 -49 380 42 561 53 107 115 176 242
274 189 144 300 320 347 546 11 53 13 248 4 295 -5 25 -12 56 -14 69 -24 111
-102 267 -181 360 -36 42 -115 114 -163 149 -90 65 -242 130 -342 147 -47 8
-250 15 -275 9z"/>
<path d="M6029 6996 c-2 -2 -24 -6 -49 -9 -63 -8 -174 -44 -245 -79 -85 -43
-140 -83 -213 -152 -165 -158 -257 -359 -269 -591 -5 -106 -2 -128 33 -290 11
-54 90 -209 136 -270 51 -67 129 -142 236 -227 89 -72 152 -150 202 -253 35
-73 47 -110 65 -200 7 -39 7 -191 0 -230 -28 -146 -92 -275 -187 -375 -24 -25
-86 -80 -138 -122 -172 -137 -266 -277 -322 -478 -32 -111 -31 -322 0 -440 56
-204 168 -363 357 -505 161 -122 257 -274 290 -459 40 -230 -26 -451 -186
-627 -13 -14 -55 -50 -94 -80 -220 -169 -333 -338 -381 -574 -11 -53 -13 -249
-4 -295 5 -25 12 -56 14 -69 20 -93 76 -215 141 -306 276 -387 829 -479 1217
-202 117 84 223 210 283 337 21 44 65 170 60 170 -3 0 0 12 6 28 17 43 19 237
4 327 -38 223 -146 399 -340 553 -38 30 -90 73 -114 96 -82 77 -178 248 -195
346 -3 19 -8 46 -11 60 -13 56 -6 206 14 281 45 172 130 299 277 411 202 155
329 350 368 564 18 100 15 269 -7 364 -24 103 -85 233 -149 320 -54 72 -136
151 -220 212 -128 93 -206 201 -259 359 -27 82 -32 109 -32 204 -1 61 2 126 6
145 23 120 72 228 143 317 59 73 62 76 159 150 173 131 277 274 335 458 28 92
35 141 35 255 0 152 -13 219 -65 344 -85 203 -255 376 -455 463 -61 26 -91 36
-190 60 -26 6 -250 14 -256 9z"/>
<path d="M3435 4373 c-148 -14 -291 -62 -411 -139 -125 -80 -266 -245 -324
-379 -81 -186 -96 -416 -39 -601 114 -369 432 -614 814 -627 552 -20 984 485
884 1033 -72 395 -421 699 -819 713 -41 1 -88 1 -105 0z"/>
<path d="M3380 1743 c-196 -32 -368 -120 -500 -253 -59 -61 -80 -87 -136 -175
-28 -44 -99 -217 -102 -248 0 -4 -4 -38 -8 -75 -17 -156 -7 -265 37 -395 75
-221 245 -414 452 -511 63 -30 155 -61 208 -71 57 -11 241 -14 301 -5 177 25
354 116 484 246 296 298 342 748 112 1104 -34 53 -124 151 -181 198 -98 81
-246 149 -382 178 -37 7 -250 13 -285 7z"/>
</g>
</svg>
