<?xml version="1.0" encoding="utf-8"?>
<!-- Generator: Adobe Illustrator 25.1.0, SVG Export Plug-In . SVG Version: 6.00 Build 0)  -->
<svg version="1.1" id="Layer_1" xmlns="http://www.w3.org/2000/svg" xmlns:xlink="http://www.w3.org/1999/xlink" x="0px" y="0px"
	 viewBox="0 0 62.2 88" style="enable-background:new 0 0 62.2 88;" xml:space="preserve">
<style type="text/css">
	.st0{fill-rule:evenodd;clip-rule:evenodd;}
</style>
<g transform="translate(0,-952.36218)">
	<path class="st0" d="M39.4,952.4c0.8,0,1.7,0.2,2.5,0.6l0,0c0,0,0,0,0,0l0.7,0.4c0,0,0,0,0,0c2.3,1.3,3.1,4.3,1.8,6.5l-0.5,0.8
		l2.8,1.6c1,0.5,1.3,1.8,0.7,2.7c0,0,0,0,0,0l-6.7,11.5c8.3,1.4,14.6,6.7,17.9,12.5c0,0,0,0,0,0c7.2,12.4,2.9,28.4-9.6,35.6
		c-3.2,1.8-6.5,2.9-9.9,3.3v8.4h12.2c1.1,0,2,0.9,2,2s-0.9,2-2,2c0,0,0,0-0.1,0H23c-1.1,0-2-0.9-2-2s0.9-2,2-2c0,0,0,0,0.1,0h12.2
		v-8.2c-8.1-0.3-15.9-4.2-20.7-11.2H2c-1.1,0-2-0.9-2-2s0.9-2,2-2c0,0,0,0,0.1,0h28.4c1.1,0,2,0.9,2,2s-0.9,2-2,2c0,0,0,0-0.1,0
		H19.5c6.9,7.5,18.3,9.6,27.6,4.3c10.7-6.1,14.3-19.5,8.1-30.1c0,0,0,0,0,0c-3-5.2-8.9-10-16.7-10.8l-6.3,10.7
		c-0.6,0.9-1.8,1.3-2.7,0.7l-14.7-8.4c-1-0.5-1.3-1.8-0.7-2.7c0,0,0,0,0,0l15.1-26c0.6-0.9,1.8-1.3,2.7-0.7l2.9,1.6l0.5-0.8h0
		C36.2,953.2,37.8,952.4,39.4,952.4L39.4,952.4z M39.5,956.4c-0.3,0-0.6,0.1-0.7,0.4l-0.5,0.8l2.1,1.2l0.5-0.8
		c0.2-0.4,0.1-0.8-0.3-1l0,0l-0.7-0.4c0,0,0,0,0,0C39.8,956.4,39.7,956.4,39.5,956.4L39.5,956.4z M31.8,958.4l-13.1,22.5l11.2,6.4
		L43,964.8L31.8,958.4z"/>
</g>
</svg>
