<svg x="0px" y="0px" viewBox="0 0 100 125"><g transform="translate(0,-952.36218)"><path style="text-indent:0;text-transform:none;direction:ltr;block-progression:tb;baseline-shift:baseline;color:#000000;enable-background:accumulate;" d="m 58.29439,958.36498 c 0.84425,-0.0191 1.70272,0.18236 2.48281,0.62906 l 0.0069,0.004 c 0.0012,6.9e-4 0.0025,0.001 0.0037,0.002 l 0.69969,0.3975 a 2.0002005,2.0002005 0 0 1 0.0013,6.3e-4 c 2.28447,1.29943 3.08903,4.26311 1.76563,6.53125 l -0.46375,0.79468 2.83031,1.62032 a 2.0002005,2.0002005 0 0 1 0.73437,2.7425 l -6.68906,11.48187 c 8.25982,1.42571 14.57414,6.72108 17.94844,12.5125 a 2.0002005,2.0002005 0 0 1 6e-4,10e-4 c 7.23609,12.43671 2.91527,28.40371 -9.61374,35.57621 -3.15658,1.8071 -6.53796,2.8874 -9.94594,3.2956 l 0,8.4063 12.18687,0 a 2.0002005,2.0002005 0 1 1 0,4 l -28.37406,0 a 2.0002005,2.0002005 0 1 1 0,-4 l 12.18719,0 0,-8.2334 c -8.09262,-0.2641 -15.89808,-4.2318 -20.74938,-11.2063 l -12.40156,0 a 2.0002005,2.0002005 0 1 1 0,-4 l 28.37406,0 a 2.0002005,2.0002005 0 1 1 0,4 l -10.86531,0 c 6.87933,7.5318 18.34434,9.5652 27.60063,4.2663 10.66122,-6.1033 14.28858,-19.5313 8.14465,-30.09216 -2e-4,-3.2e-4 -4e-4,-6.1e-4 -6e-4,-9.4e-4 -3.01093,-5.16708 -8.94909,-10.00137 -16.66938,-10.78813 l -6.26125,10.7472 a 2.0002005,2.0002005 0 0 1 -2.72093,0.72937 l -14.715,-8.41531 a 2.0002005,2.0002005 0 0 1 -0.73532,-2.7425 l 15.12782,-25.97594 a 2.0002005,2.0002005 0 0 1 2.72187,-0.72906 l 2.85656,1.63531 0.47938,-0.82125 -3e-4,0 c 0.86616,-1.4845 2.43375,-2.3321 4.05281,-2.36875 z m 0.11312,3.9925 c -0.28561,-0.007 -0.56249,0.13777 -0.71093,0.39219 l -0.46282,0.79281 2.08532,1.19406 0.48031,-0.82312 c 0.21217,-0.36364 0.09576,-0.81916 -0.28719,-1.03781 l -0.0012,-6.3e-4 -0.70906,-0.40281 a 2.0002005,2.0002005 0 0 1 -0.01063,-0.006 c -0.12214,-0.0704 -0.25392,-0.10541 -0.38375,-0.10875 z m -7.76593,2.01969 -13.11438,22.51844 11.24312,6.42968 13.11469,-22.51062 -11.24343,-6.4375 z" fill="#000000" fill-opacity="1" fill-rule="evenodd" stroke="none" marker="none" visibility="visible" display="inline" overflow="visible"/></g></svg>