<?xml version="1.0" encoding="utf-8"?>
<!-- Generator: Adobe Illustrator 25.2.0, SVG Export Plug-In . SVG Version: 6.00 Build 0)  -->
<svg version="1.1" id="Layer_1" xmlns="http://www.w3.org/2000/svg" xmlns:xlink="http://www.w3.org/1999/xlink" x="0px" y="0px"
	 viewBox="0 0 160 160" style="enable-background:new 0 0 160 160;" xml:space="preserve">
<style type="text/css">
	.st0{fill:#60C3A8;}
	.st1{fill:none;}
	.st2{fill:#4E85C5;}
</style>
<g>
	<circle class="st0" cx="80" cy="80" r="20"/>
	<circle class="st0" cx="20" cy="80" r="20"/>
	<path class="st0" d="M31.5,96.4c-9.5,6.6-9.5,20.6,0,27.2H8.5C18,117,18,103,8.5,96.4H31.5z"/>
	<path class="st0" d="M8.5,63.6C18,57,18,43,8.5,36.4h22.9C22,43,22,57,31.5,63.6H8.5z"/>
	<path class="st1" d="M79,59.7c0.3,0,0.7,0.1,1,0.1c0.3,0,0.7-0.1,1-0.1c-0.3,0-0.7,0-1,0S79.3,59.7,79,59.7z"/>
	<circle class="st0" cx="140" cy="80" r="20"/>
	<path class="st0" d="M151.5,96.4c-9.5,6.6-9.5,20.6,0,27.2h-22.9c9.5-6.6,9.5-20.6,0-27.2H151.5z"/>
	<path class="st0" d="M128.5,63.6c9.5-6.6,9.5-20.6,0-27.2h22.9c-9.5,6.6-9.5,20.6,0,27.2H128.5z"/>
	<circle class="st0" cx="20" cy="20" r="20"/>
	<circle class="st0" cx="140" cy="20" r="20"/>
	<circle class="st0" cx="20" cy="140" r="20"/>
	<circle class="st2" cx="80" cy="140" r="20"/>
	<circle class="st0" cx="140" cy="140" r="20"/>
</g>
</svg>
